{"asset":{"version":"2.0","generator":"Blockbench 4.10.4 glTF exporter"},"scenes":[{"nodes":[1],"name":"blockbench_export"}],"scene":0,"nodes":[{"rotation":[-0.7071067811865475,0,0,0.7071067811865476],"translation":[0,1.875,-1.625],"name":"EX-213","mesh":0},{"children":[0]}],"bufferViews":[{"buffer":0,"byteOffset":0,"byteLength":21672,"target":34962,"byteStride":12},{"buffer":0,"byteOffset":21672,"byteLength":21672,"target":34962,"byteStride":12},{"buffer":0,"byteOffset":43344,"byteLength":14448,"target":34962,"byteStride":8},{"buffer":0,"byteOffset":57792,"byteLength":5064,"target":34963}],"buffers":[{"byteLength":62856,"uri":"data:application/octet-stream;base64,"}],"accessors":[{"bufferView":0,"componentType":5126,"count":1806,"max":[2.1875,1.8793001174926758,1.3991779088974],"min":[-2.1875,-4.8125,-1.5216506719589233],"type":"VEC3"},{"bufferView":1,"componentType":5126,"count":1806,"max":[1,1,1],"min":[-1,-1,-1],"type":"VEC3"},{"bufferView":2,"componentType":5126,"count":1806,"max":[0.5660898685455322,0.59765625],"min":[0,0],"type":"VEC2"},{"bufferView":3,"componentType":5123,"count":2532,"max":[1805],"min":[0],"type":"SCALAR"}],"materials":[{"pbrMetallicRoughness":{"metallicFactor":0,"roughnessFactor":1,"baseColorTexture":{"index":0}},"alphaMode":"MASK","alphaCutoff":0.05,"doubleSided":true}],"textures":[{"sampler":0,"source":0,"name":"EX-213_texture.png"}],"samplers":[{"magFilter":9728,"minFilter":9728,"wrapS":33071,"wrapT":33071}],"images":[{"mimeType":"image/png"}],"meshes":[{"primitives":[{"mode":4,"attributes":{"POSITION":0,"NORMAL":1,"TEXCOORD_0":2},"indices":3,"material":0}]}]}